<svg width="2000" height="2000" viewBox="0 0 2000 2000" fill="currentColor" xmlns="http://www.w3.org/2000/svg">
<path d="M985.748 0C853.378 0 738.8 47.47 645.157 141.113C551.514 234.756 504.028 349.349 504.028 481.689C504.028 614.058 551.514 728.652 645.157 822.295C738.831 915.922 853.424 963.408 985.748 963.408C1081.31 963.408 1167.62 938.66 1243.47 889.647V739.409C1171.6 811.278 1087.3 846.205 985.748 846.205C884.216 846.205 799.927 811.263 728.043 739.409C656.174 667.555 621.231 583.251 621.231 481.689C621.231 380.157 656.174 295.852 728.043 223.983C799.896 152.13 884.186 117.203 985.748 117.203C1087.3 117.203 1171.6 152.13 1243.47 223.983V73.759C1167.62 24.751 1081.31 0 985.748 0Z" fill="white"/>
<path d="M1243.47 739.409V889.647C1243.47 889.647 1366.5 812 1315.5 734C1287.03 690.453 1243.47 739.409 1243.47 739.409Z" fill="white"/>
<path d="M1243.47 73.759V223.983C1243.47 223.983 1307.84 260 1328 199C1348.16 138 1243.47 73.759 1243.47 73.759Z" fill="white"/>
<path d="M1828.63 1537.9C1825.93 1498.93 1820.47 1456.42 1812.42 1411.53C1804.31 1366.3 1793.85 1323.54 1781.34 1284.47C1768.4 1244.08 1750.84 1204.19 1729.1 1165.97C1706.56 1126.29 1680.07 1091.75 1650.34 1063.32C1619.26 1033.58 1581.21 1009.67 1537.2 992.231C1493.35 974.882 1444.75 966.093 1392.76 966.093C1372.34 966.093 1352.6 974.47 1314.47 999.296C1291 1014.6 1263.55 1032.3 1232.91 1051.88C1206.71 1068.57 1171.22 1084.21 1127.38 1098.37C1084.61 1112.21 1041.18 1119.23 998.306 1119.23C955.46 1119.23 912.033 1112.21 869.232 1098.37C825.439 1084.23 789.932 1068.59 763.779 1051.89C733.429 1032.5 705.963 1014.8 682.144 999.281C644.043 974.455 624.298 966.078 603.882 966.078C551.88 966.078 503.296 974.882 459.457 992.247C415.482 1009.66 377.411 1033.57 346.298 1063.34C316.574 1091.78 290.085 1126.31 267.563 1165.97C245.85 1204.19 228.271 1244.06 215.332 1284.48C202.835 1323.56 192.383 1366.3 184.265 1411.53C176.208 1456.36 170.761 1498.88 168.06 1537.95C165.405 1576.14 164.062 1615.89 164.062 1656.05C164.062 1760.45 197.25 1844.97 262.695 1907.3C327.332 1968.81 412.842 2000 516.861 2000H1479.87C1583.86 2000 1669.37 1968.81 1734.02 1907.3C1799.48 1845.01 1832.67 1760.46 1832.67 1656.03C1832.66 1615.73 1831.3 1575.99 1828.63 1537.9ZM1653.21 1822.38C1610.5 1863.03 1553.8 1882.79 1479.86 1882.79H516.861C442.902 1882.79 386.2 1863.03 343.506 1822.4C301.62 1782.53 281.265 1728.1 281.265 1656.05C281.265 1618.57 282.501 1581.57 284.973 1546.05C287.384 1511.2 292.313 1472.91 299.622 1432.23C306.839 1392.06 316.025 1354.35 326.95 1320.22C337.433 1287.49 351.73 1255.08 369.461 1223.86C386.383 1194.1 405.853 1168.58 427.338 1148.01C447.433 1128.77 472.763 1113.02 502.609 1101.21C530.212 1090.28 561.234 1084.3 594.91 1083.4C599.014 1085.58 606.323 1089.75 618.164 1097.47C642.258 1113.17 670.029 1131.09 700.729 1150.69C735.336 1172.76 779.922 1192.69 833.191 1209.88C887.65 1227.49 943.192 1236.43 998.322 1236.43C1053.45 1236.43 1109.01 1227.49 1163.44 1209.9C1216.75 1192.67 1261.32 1172.76 1295.97 1150.66C1327.39 1130.58 1354.39 1113.19 1378.48 1097.47C1390.32 1089.77 1397.63 1085.58 1401.73 1083.4C1435.42 1084.3 1466.45 1090.28 1494.06 1101.21C1523.9 1113.02 1549.22 1128.78 1569.32 1148.01C1590.81 1168.56 1610.28 1194.09 1627.2 1223.87C1644.94 1255.08 1659.26 1287.5 1669.72 1320.2C1680.66 1354.38 1689.87 1392.07 1697.07 1432.22C1704.36 1472.97 1709.3 1511.27 1711.72 1546.06V1546.09C1714.2 1581.48 1715.45 1618.47 1715.47 1656.05C1715.45 1728.12 1695.1 1782.53 1653.21 1822.38Z" fill="white"/>
<path d="M1157 460.392H1459M1761 460.392H1459M1459.34 784L1459 460.392M1459 460.392V180" stroke="#62CA31" stroke-width="118" stroke-linecap="round" stroke-linejoin="round"/>
</svg>
