<svg width="1268" height="1268" viewBox="0 0 1268 1268" fill="none" xmlns="http://www.w3.org/2000/svg">
<path d="M1011.38 38.4927H342.57C264.426 38.5281 201.079 101.866 201.053 180.011V241.146H134.539C118.901 241.146 106.236 253.821 106.236 269.45C106.236 285.079 118.901 297.753 134.539 297.753H200.761V483.425H134.539C118.901 483.425 106.236 496.091 106.236 511.728C106.236 527.357 118.901 540.032 134.539 540.032H200.761V725.703H134.539C118.901 725.703 106.236 738.378 106.236 754.007C106.236 769.645 118.901 782.311 134.539 782.311H200.761V967.982H134.539C118.901 967.982 106.236 980.657 106.236 996.286C106.236 1011.91 118.901 1024.59 134.539 1024.59H200.761V1085.72C200.796 1163.87 264.134 1227.21 342.279 1227.24H1011.09C1089.24 1227.21 1152.59 1163.87 1152.61 1085.72V180.011C1152.72 101.919 1089.48 38.5457 1011.38 38.4927V38.4927ZM1096.29 1085.72C1096.15 1132.56 1058.22 1170.5 1011.38 1170.64H342.57C295.737 1170.5 257.792 1132.56 257.66 1085.72V1024.59H323.881C339.519 1024.59 352.185 1011.91 352.185 996.286C352.185 980.657 339.519 967.982 323.881 967.982H257.66V782.311H323.881C339.519 782.311 352.185 769.645 352.185 754.007C352.185 738.378 339.519 725.703 323.881 725.703H257.66V540.032H323.881C339.519 540.032 352.185 527.357 352.185 511.728C352.185 496.091 339.519 483.425 323.881 483.425H257.66V297.753H323.881C339.519 297.753 352.185 285.079 352.185 269.45C352.185 253.821 339.519 241.146 323.881 241.146H257.66V180.011C257.792 133.177 295.737 95.2325 342.57 95.0998H1011.38C1058.22 95.2325 1096.15 133.177 1096.29 180.011V1085.72Z" fill="white"/>
<path d="M682.716 618.965C737.1 618.965 784.186 599.46 822.67 560.976C861.142 522.498 880.653 475.419 880.653 421.028C880.653 366.657 861.148 319.571 822.664 281.081C784.18 242.609 737.094 223.104 682.716 223.104C628.326 223.104 581.246 242.609 542.768 281.087C504.291 319.565 484.779 366.651 484.779 421.028C484.779 475.419 504.291 522.505 542.768 560.982C581.259 599.454 628.345 618.965 682.716 618.965V618.965ZM576.826 315.138C606.35 285.614 640.985 271.262 682.716 271.262C724.442 271.262 759.082 285.614 788.613 315.138C818.137 344.669 832.495 379.309 832.495 421.028C832.495 462.76 818.137 497.394 788.613 526.925C759.082 556.456 724.442 570.807 682.716 570.807C640.997 570.807 606.363 556.449 576.826 526.925C547.295 497.401 532.937 462.76 532.937 421.028C532.937 379.309 547.295 344.669 576.826 315.138Z" fill="white"/>
<path d="M1029.05 855.022C1027.94 839.009 1025.7 821.542 1022.39 803.096C1019.06 784.513 1014.76 766.945 1009.62 750.888C1004.31 734.292 997.089 717.902 988.155 702.197C978.894 685.895 968.01 671.7 955.796 660.02C943.025 647.8 927.388 637.975 909.306 630.809C891.287 623.68 871.317 620.069 849.956 620.069C841.567 620.069 833.454 623.511 817.786 633.712C808.143 640 796.864 647.273 784.274 655.317C773.509 662.177 758.925 668.603 740.912 674.421C723.338 680.108 705.494 682.992 687.876 682.992C670.271 682.992 652.427 680.108 634.84 674.421C616.846 668.609 602.256 662.183 591.51 655.324C579.039 647.355 567.754 640.082 557.966 633.706C542.311 623.505 534.198 620.062 525.809 620.062C504.441 620.062 484.478 623.68 466.465 630.815C448.396 637.969 432.753 647.794 419.969 660.026C407.755 671.713 396.871 685.901 387.617 702.197C378.695 717.902 371.472 734.285 366.155 750.894C361.02 766.951 356.725 784.513 353.39 803.096C350.079 821.517 347.841 838.991 346.731 855.041C345.64 870.734 345.089 887.067 345.089 903.569C345.089 946.467 358.725 981.195 385.616 1006.81C412.175 1032.08 447.311 1044.9 490.052 1044.9H885.75C928.479 1044.9 963.615 1032.08 990.18 1006.81C1017.08 981.214 1030.71 946.473 1030.71 903.563C1030.71 887.005 1030.15 870.672 1029.05 855.022V855.022ZM956.975 971.916C939.426 988.619 916.128 996.738 885.744 996.738H490.052C459.663 996.738 436.364 988.619 418.821 971.922C401.611 955.54 393.247 933.175 393.247 903.569C393.247 888.171 393.755 872.967 394.77 858.37C395.761 844.05 397.786 828.319 400.789 811.604C403.755 795.096 407.529 779.603 412.019 765.578C416.326 752.129 422.201 738.812 429.486 725.984C436.439 713.758 444.44 703.269 453.267 694.817C461.525 686.911 471.933 680.44 484.196 675.588C495.538 671.098 508.285 668.641 522.122 668.271C523.809 669.167 526.812 670.879 531.677 674.052C541.577 680.503 552.988 687.864 565.603 695.921C579.823 704.987 598.143 713.175 620.031 720.241C642.408 727.476 665.23 731.15 687.882 731.15C710.535 731.15 733.363 727.476 755.728 720.247C777.634 713.169 795.948 704.987 810.187 695.908C823.097 687.657 834.188 680.509 844.088 674.052C848.953 670.885 851.956 669.167 853.643 668.271C867.487 668.641 880.233 671.098 891.581 675.588C903.839 680.44 914.247 686.917 922.504 694.817C931.332 703.262 939.332 713.752 946.285 725.99C953.577 738.812 959.458 752.135 963.759 765.572C968.254 779.616 972.035 795.102 974.994 811.598C977.991 828.345 980.023 844.082 981.013 858.377V858.389C982.035 872.929 982.55 888.127 982.556 903.569C982.55 933.181 974.186 955.54 956.975 971.916V971.916Z" fill="white"/>
<path d="M1062.85 136H920.154C915.669 136 912 139.634 912 144.077V232.923C912 237.365 915.669 241 920.154 241H1062.85C1067.33 241 1071 237.366 1071 232.923V144.077C1071 139.634 1067.33 136 1062.85 136ZM1059.79 142.057L996.19 189.308C995.047 190.17 993.292 190.709 991.5 190.701C989.708 190.709 987.953 190.17 986.809 189.308L923.214 142.057H1059.79ZM1025.82 192.425L1060.47 234.83C1060.5 234.872 1060.55 234.904 1060.58 234.943H922.416C922.453 234.902 922.496 234.872 922.531 234.83L957.184 192.425C958.246 191.125 958.045 189.219 956.73 188.165C955.417 187.113 953.493 187.312 952.431 188.613L918.115 230.603V145.843L983.142 194.153C985.586 195.957 988.56 196.75 991.499 196.758C994.435 196.752 997.411 195.958 999.857 194.153L1064.88 145.843V230.602L1030.57 188.613C1029.51 187.313 1027.58 187.113 1026.27 188.165C1024.95 189.216 1024.75 191.125 1025.82 192.425Z" fill="white"/>
<path d="M948.978 354.057C963.136 370.917 980.179 384.192 999.631 393.585C1007.04 397.081 1016.94 401.23 1027.98 401.941C1028.66 401.97 1029.32 402 1030 402C1037.41 402 1043.35 399.452 1048.2 394.207C1048.23 394.177 1048.29 394.118 1048.32 394.059C1050.05 391.985 1052.01 390.118 1054.06 388.133C1055.46 386.799 1056.89 385.407 1058.26 383.984C1064.59 377.406 1064.59 369.05 1058.2 362.679L1040.32 344.871C1037.29 341.73 1033.66 340.071 1029.85 340.071C1026.04 340.071 1022.39 341.73 1019.26 344.841L1008.61 355.449C1007.63 354.886 1006.62 354.383 1005.67 353.909C1004.48 353.316 1003.38 352.753 1002.4 352.131C992.701 345.997 983.897 337.997 975.48 327.715C971.226 322.351 968.371 317.847 966.378 313.255C969.174 310.736 971.792 308.099 974.32 305.521C975.212 304.602 976.134 303.684 977.056 302.765C980.268 299.565 981.994 295.861 981.994 292.098C981.994 288.335 980.298 284.631 977.056 281.431L968.193 272.601C967.152 271.564 966.17 270.556 965.159 269.519C963.196 267.504 961.143 265.43 959.121 263.563C956.057 260.57 952.458 259 948.651 259C944.874 259 941.245 260.57 938.062 263.593L926.938 274.675C922.893 278.705 920.603 283.594 920.127 289.253C919.562 296.335 920.871 303.862 924.261 312.958C929.467 327.033 937.319 340.1 948.978 354.057ZM927.385 289.876C927.741 285.935 929.258 282.646 932.114 279.801L943.178 268.778C944.903 267.119 946.807 266.26 948.651 266.26C950.465 266.26 952.31 267.119 954.005 268.838C955.998 270.675 957.872 272.601 959.894 274.645C960.905 275.682 961.946 276.719 962.987 277.786L971.851 286.616C973.695 288.453 974.647 290.32 974.647 292.157C974.647 293.994 973.695 295.861 971.851 297.698C970.929 298.617 970.007 299.565 969.085 300.484C966.319 303.269 963.731 305.906 960.876 308.425C960.816 308.484 960.786 308.514 960.727 308.573C958.258 311.032 958.645 313.373 959.24 315.151C959.27 315.24 959.299 315.299 959.329 315.388C961.619 320.87 964.802 326.085 969.769 332.307C978.692 343.271 988.091 351.775 998.442 358.324C999.721 359.153 1001.09 359.805 1002.37 360.457C1003.56 361.05 1004.66 361.613 1005.64 362.235C1005.76 362.294 1005.85 362.354 1005.97 362.413C1006.95 362.916 1007.9 363.154 1008.85 363.154C1011.23 363.154 1012.78 361.642 1013.28 361.139L1024.41 350.057C1026.13 348.338 1028.01 347.419 1029.85 347.419C1032.11 347.419 1033.96 348.812 1035.12 350.057L1053.05 367.895C1056.62 371.45 1056.59 375.302 1052.96 379.065C1051.71 380.399 1050.4 381.673 1049.01 383.006C1046.92 385.021 1044.75 387.096 1042.79 389.436C1039.37 393.111 1035.29 394.829 1030.03 394.829C1029.52 394.829 1028.99 394.8 1028.48 394.77C1018.73 394.148 1009.66 390.355 1002.84 387.125C984.343 378.206 968.103 365.554 954.63 349.494C943.535 336.189 936.07 323.803 931.132 310.529C928.069 302.38 926.909 295.832 927.385 289.876Z" fill="white"/>
<path fill-rule="evenodd" clip-rule="evenodd" d="M991.5 431.583C959.513 431.583 933.583 457.513 933.583 489.5C933.583 521.486 959.513 547.417 991.5 547.417C994.699 547.417 997.292 550.01 997.292 553.208C997.292 556.407 994.699 559 991.5 559C953.116 559 922 527.884 922 489.5C922 451.116 953.116 420 991.5 420C1029.88 420 1061 451.116 1061 489.5V501.083C1061 513.878 1050.63 524.25 1037.83 524.25C1029.16 524.25 1021.59 519.479 1017.62 512.416C1011.25 519.671 1001.91 524.25 991.5 524.25C972.308 524.25 956.75 508.692 956.75 489.5C956.75 470.308 972.308 454.75 991.5 454.75C1000.4 454.75 1008.52 458.096 1014.67 463.598V460.542C1014.67 457.343 1017.26 454.75 1020.46 454.75C1023.66 454.75 1026.25 457.343 1026.25 460.542V501.083C1026.25 507.481 1031.44 512.667 1037.83 512.667C1044.23 512.667 1049.42 507.481 1049.42 501.083V489.5C1049.42 457.513 1023.49 431.583 991.5 431.583ZM1014.67 489.5C1014.67 476.705 1004.29 466.333 991.5 466.333C978.705 466.333 968.333 476.705 968.333 489.5C968.333 502.294 978.705 512.667 991.5 512.667C1004.29 512.667 1014.67 502.294 1014.67 489.5Z" fill="white"/>
</svg>
