<svg width="2000" height="2000" viewBox="0 0 2000 2000" fill="none" xmlns="http://www.w3.org/2000/svg">
<path d="M1157 460H1459H1761" stroke="#E63B3B" stroke-width="118" stroke-linecap="round" stroke-linejoin="round"/>
<path d="M1361 263.119C1252.8 207.434 1130.07 176 1000 176C563.695 176 210 529.695 210 966C210 1109.89 248.471 1244.8 315.688 1361L210 1756L605 1650.31C721.198 1717.53 856.107 1756 1000 1756C1436.3 1756 1790 1402.3 1790 966C1790 860.568 1769.35 759.959 1731.86 668" stroke="white" stroke-width="160" stroke-linecap="round" stroke-linejoin="round"/>
<path d="M1178.61 551H489.385C467.722 551 450 568.722 450 590.384V1023.61C450 1045.27 467.722 1063 489.385 1063H1178.61C1200.27 1063 1218 1045.28 1218 1023.61V590.384C1218 568.722 1200.28 551 1178.61 551ZM1163.83 580.536L856.655 810.939C851.132 815.142 842.654 817.771 833.998 817.732C825.343 817.771 816.866 815.142 811.342 810.939L504.163 580.536H1163.83ZM999.749 826.141L1167.13 1032.91C1167.3 1033.12 1167.51 1033.28 1167.69 1033.46H500.313C500.49 1033.27 500.697 1033.12 500.865 1032.91L668.25 826.141C673.378 819.801 672.406 810.505 666.054 805.365C659.713 800.237 650.418 801.209 645.288 807.551L479.538 1012.3V598.998L793.628 834.567C805.435 843.36 819.799 847.23 833.996 847.269C848.174 847.239 862.55 843.369 874.364 834.567L1188.45 598.998V1012.3L1022.71 807.551C1017.58 801.21 1008.27 800.235 1001.94 805.365C995.592 810.493 994.617 819.801 999.749 826.141Z" fill="white" fill-opacity="0.4" stroke="black" stroke-opacity="0.05" stroke-width="3"/>
<path d="M1275.61 649H586.385C564.722 649 547 666.722 547 688.384V1121.61C547 1143.27 564.722 1161 586.385 1161H1275.61C1297.27 1161 1315 1143.28 1315 1121.61V688.384C1315 666.722 1297.28 649 1275.61 649ZM1260.83 678.536L953.655 908.939C948.132 913.142 939.654 915.771 930.998 915.732C922.343 915.771 913.866 913.142 908.342 908.939L601.163 678.536H1260.83ZM1096.75 924.141L1264.13 1130.91C1264.3 1131.12 1264.51 1131.28 1264.69 1131.46H597.313C597.49 1131.27 597.697 1131.12 597.865 1130.91L765.25 924.141C770.378 917.801 769.406 908.505 763.054 903.365C756.713 898.237 747.418 899.209 742.288 905.551L576.538 1110.3V696.998L890.628 932.567C902.435 941.36 916.799 945.23 930.996 945.269C945.174 945.239 959.55 941.369 971.364 932.567L1285.45 696.998V1110.3L1119.71 905.551C1114.58 899.21 1105.27 898.235 1098.94 903.365C1092.59 908.493 1091.62 917.801 1096.75 924.141Z" fill="white" fill-opacity="0.6" stroke="black" stroke-opacity="0.05" stroke-width="3"/>
<path d="M1380.61 761H691.385C669.722 761 652 778.722 652 800.384V1233.61C652 1255.27 669.722 1273 691.385 1273H1380.61C1402.27 1273 1420 1255.28 1420 1233.61V800.384C1420 778.722 1402.28 761 1380.61 761ZM1365.83 790.536L1058.66 1020.94C1053.13 1025.14 1044.65 1027.77 1036 1027.73C1027.34 1027.77 1018.87 1025.14 1013.34 1020.94L706.163 790.536H1365.83ZM1201.75 1036.14L1369.13 1242.91C1369.3 1243.12 1369.51 1243.28 1369.69 1243.46H702.313C702.49 1243.27 702.697 1243.12 702.865 1242.91L870.25 1036.14C875.378 1029.8 874.406 1020.51 868.054 1015.37C861.713 1010.24 852.418 1011.21 847.288 1017.55L681.538 1222.3V808.998L995.628 1044.57C1007.43 1053.36 1021.8 1057.23 1036 1057.27C1050.17 1057.24 1064.55 1053.37 1076.36 1044.57L1390.45 808.998V1222.3L1224.71 1017.55C1219.58 1011.21 1210.27 1010.24 1203.94 1015.37C1197.59 1020.49 1196.62 1029.8 1201.75 1036.14Z" fill="white" fill-opacity="0.8" stroke="black" stroke-opacity="0.05" stroke-width="3"/>
<path d="M1488.61 877H799.385C777.722 877 760 894.722 760 916.384V1349.61C760 1371.27 777.722 1389 799.385 1389H1488.61C1510.27 1389 1528 1371.28 1528 1349.61V916.384C1528 894.722 1510.28 877 1488.61 877ZM1473.83 906.536L1166.66 1136.94C1161.13 1141.14 1152.65 1143.77 1144 1143.73C1135.34 1143.77 1126.87 1141.14 1121.34 1136.94L814.163 906.536H1473.83ZM1309.75 1152.14L1477.13 1358.91C1477.3 1359.12 1477.51 1359.28 1477.69 1359.46H810.313C810.49 1359.27 810.697 1359.12 810.865 1358.91L978.25 1152.14C983.378 1145.8 982.406 1136.51 976.054 1131.37C969.713 1126.24 960.418 1127.21 955.288 1133.55L789.538 1338.3V924.998L1103.63 1160.57C1115.43 1169.36 1129.8 1173.23 1144 1173.27C1158.17 1173.24 1172.55 1169.37 1184.36 1160.57L1498.45 924.998V1338.3L1332.71 1133.55C1327.58 1127.21 1318.27 1126.24 1311.94 1131.37C1305.59 1136.49 1304.62 1145.8 1309.75 1152.14Z" fill="white" stroke="black" stroke-opacity="0.05" stroke-width="3"/>
</svg>
