<svg width="1060" height="1060" viewBox="0 0 1060 1060" fill="none" xmlns="http://www.w3.org/2000/svg">
<g clip-path="url(#clip0)">
<path d="M761.5 572.5C594.5 614.5 244 367.5 224 301L311 205L446.75 247L669.5 193L761.5 572.5Z" fill="white"/>
<path d="M588.5 278C493.257 250.3 433.488 224.944 309.5 194C320.053 239.954 334.66 264.188 374.5 305L511.5 327C530.5 305 551 298 588.5 278Z" fill="#2394C7" stroke="black"/>
<path d="M365.5 259.5L328 239.5C338.346 252.369 346.018 260.782 352.943 267.5C364.199 261.316 376 279 373 285C392 282.5 406.5 293 441 308.5C458.713 312.807 449 302 434.5 294C432.934 293.136 460 301.25 455.5 298C446.5 291.5 435.5 284 432 278.5C433.287 274.252 441.306 279.092 447.5 277.5L449 271L395 257.5C391 256.5 389 263 402 274C407.5 277.5 380.34 265.553 365.5 259.5Z" fill="#49CEE8"/>
<path d="M536.5 298.5L489.5 277L468.5 275.5C480.598 287.493 484.5 294.962 482 296.5C475.5 300.5 461.12 284.569 454.5 275.5C460.21 289.2 463 300.5 459 302C455 303.5 446.591 291.964 446 280C444.616 269.479 444.162 263.672 447.5 254.5L512 241L582.5 274.5L536.5 298.5Z" fill="#27898F"/>
<path d="M545 300C539 298.5 530 312 530 318.5C533.541 363.885 547 396.5 569 380.5C582 365.5 584.339 350.754 545 300Z" fill="white" stroke="black" stroke-width="5" stroke-linecap="round" stroke-linejoin="round"/>
<path d="M510 294C505.5 295.5 504.892 302.151 512 302C520.887 300.872 520 290.667 510 294Z" fill="white"/>
<path d="M352.5 253C355.794 255 369.5 242 366.5 238.5C357.5 238.5 342.5 225.472 340 225.5C336.732 225.537 336.09 227.213 336 229C335.481 243.231 338.5 244.5 352.5 253Z" fill="white"/>
<path d="M399 224C376.5 226 336.679 221.162 337.5 211L340 194L416 195.5L399 224Z" fill="#313A65"/>
<path d="M360.5 237C352.264 234.98 349.155 233.421 349.5 229C351.442 224.835 357.5 228 386 238C377.724 238.192 372.733 238.178 360.5 237Z" fill="#323A65"/>
<path d="M474.5 257L455 254L444.5 255L463.5 269C473 277 497.5 292 498.5 291C500.5 289 497.168 286.192 496 283C496.5 282 525 301 529.5 291C512 273.5 476.5 263.5 474.5 257Z" fill="#313A65"/>
<path d="M568 293.5C504.5 266.5 488.5 260.5 480.5 249L474.5 227C504.711 226.106 526 244.5 563.5 269L568 293.5Z" fill="#313A65"/>
<path d="M572.5 269L580 381.5C625.211 417.136 652.421 441.288 695.5 477.5C704.5 488.5 688 485 688 486.5C687.229 487.927 699 500 701 502.5C694.5 508.5 698.5 514 699 513.5C736 534 751.5 575.438 763 573C799.987 565.16 813.463 550.272 832.5 516.5C799.5 431 760.061 336.228 572.5 269Z" fill="#A1CED7"/>
<path d="M224 301C209.222 257.957 208.842 232.676 226 191L300.5 186.5L338 273C311.745 268.53 298.056 267.594 275 268C290 271 328.808 282.85 344.5 290.5L386 322.5C353.354 308.167 306 301 224 301Z" fill="#A1C9D2"/>
<path d="M224 301C209.222 257.957 208.842 232.676 226 191L300.5 186.5L338 273C311.745 268.53 298.056 267.594 275 268C290 271 328.808 282.85 344.5 290.5L386 322.5C353.354 308.167 306 301 224 301Z" fill="url(#paint0_radial)"/>
<path fill-rule="evenodd" clip-rule="evenodd" d="M165 52C160.562 92 176.1 115.864 224.5 142.5L225.5 132.5C269.504 136.017 279.5 131 271 111C242.5 105 243.517 106.11 232.5 92.5C439 99 626.5 117 750 238.5C771.6 241.358 785.62 242.672 800 237C805 254.5 819.851 240.006 834 220.5C837.537 235.051 833.799 243.368 815 258.5C784.105 262.226 778.272 263.273 777 265.5C800 293.5 819.5 311.5 891.5 311.5C881.89 323.988 871.222 326.366 847.5 326.5L885.5 368V382.5C895.572 400.198 932.6 402.178 991.5 400C978.63 409.679 977.066 411.034 996.5 414C980.5 419.5 988.805 422.386 977 424C955.525 424.518 943.217 424.573 920.5 424C934.579 451.675 948.664 465.218 977 477.5C1051 492 978.5 507.5 941.5 486.5C928.5 493 996.5 514.5 973 518.5C946.5 525.5 908.3 507.369 898.5 467.5C889.579 463.844 875.5 465 875.5 469C875.5 495 885.5 519 892.5 525.5C872 540 826.394 513 824.5 506.5C802.5 431 717 343 597.5 282V296L573.5 317.5C610.5 384.5 546.5 417 529.5 378.5C527.5 372 525 349.5 522 337.5C500.5 340.5 485.659 339.216 462 337.5L457 342.5C418.5 342.5 352.5 311.5 335.5 279.5C323.814 267.534 319.632 261.053 315.5 245C298.454 228.663 293.11 217.309 290.5 193C265.679 185.953 172.4 206.778 105.5 147.5C110.5 146 143.5 157 143.5 157C128.903 150.254 129 144 130 135.5C130.409 132.024 155.668 147.2 172.5 160C193.887 166.096 209.677 167.599 244 167C248.5 165.5 255 160 225.5 161.059C179.5 148 124 83.5 165 52ZM381 205.5C367.401 201.347 359.477 200.318 345 200L341.5 207.5C330.641 215.244 331.821 220.887 332 234.5C329.5 243.5 331.55 251.193 340 248C347 250.5 340.5 268 353.5 265.5C350 278 360.5 270.5 365 278C369.786 283.591 375.146 288.432 381 292.538C390.305 296.14 397.695 300.018 403.5 303.963C415.152 308.008 427.946 310 441.5 310C463.5 318.5 502 312 516.5 320C527.158 292.608 533.903 285.685 547 285C550.258 288.882 552.858 291.219 560.5 296C566.607 283.615 567.36 276.407 563 263C541.853 252.253 526.914 243.439 512 242.5C509.5 248 478.5 241 483.5 248C466.112 249.135 458.045 250.054 451.5 253C444.5 260.5 463 256.5 473.5 259.5C466 274.5 424.5 264.5 436.5 278C426.619 280.083 418 280 417 269C403.757 268.176 397.819 264.872 393 248C382.657 241.409 379.12 238.131 393 236C396.218 222.299 397.902 214.709 381 216C379.431 211.899 378.883 209.601 381 205.5ZM545 300C539 298.5 530 312 530 318.5C533.541 363.885 547 396.5 569 380.5C582 365.5 584.339 350.754 545 300Z" fill="black" stroke="black" stroke-width="5" stroke-linecap="round" stroke-linejoin="round"/>
<path d="M378.448 905.222C382.497 897.072 386.01 889.749 389.198 882.832C379.301 908.036 369.366 931.378 354.42 958.867C355.791 953.397 356.952 949.306 360.452 941.715C360.452 941.713 360.453 941.711 360.454 941.709L378.448 905.222ZM442.012 703.89L424.824 775.825C425.196 773.921 425.583 771.861 425.992 769.589C426.757 765.344 427.527 761.125 428.294 756.924C431.702 738.254 435.042 719.964 437.492 701.592C439.17 694.62 440.562 687.522 441.998 680.196C444.733 666.25 447.63 651.474 452.975 635.156C452.983 635.131 452.989 635.106 452.993 635.081C458.391 602.143 461.107 583.361 462.999 547.026C463 547.013 463 546.999 463 546.986C462.647 534.586 464.748 526.15 469.193 508.303C469.45 507.274 469.714 506.214 469.985 505.12C470.017 504.992 469.997 504.855 469.928 504.742C469.859 504.628 469.748 504.546 469.62 504.514L468.922 504.343C462.932 502.869 456.884 501.381 451.474 499.513C446.059 497.644 441.331 495.411 437.958 492.47C434.603 489.545 432.596 485.927 432.584 481.24C432.573 476.525 434.581 470.663 439.418 463.274C439.5 463.149 439.522 462.994 439.477 462.851C439.433 462.708 439.327 462.593 439.189 462.537C413.736 452.168 400.335 445.911 378.748 433.566C378.673 433.523 378.587 433.5 378.5 433.5C375.305 433.5 373.047 435.107 371.48 437.131C369.923 439.143 369.026 441.589 368.519 443.363C368.453 443.595 368.141 443.91 367.316 444.188C366.53 444.453 365.429 444.633 364.087 444.716C361.41 444.882 357.878 444.659 354.237 444.056C350.597 443.453 346.875 442.476 343.814 441.15C340.729 439.813 338.413 438.163 337.445 436.272C337.36 436.105 337.188 436 337 436C324.797 436 312.201 433.006 305.087 426.506C301.549 423.272 299.371 419.177 299.25 414.129C299.128 409.064 301.074 402.978 305.915 395.779C306.002 395.649 306.024 395.485 305.973 395.337C305.921 395.188 305.803 395.073 305.654 395.024C287.912 389.277 272.707 383.416 260.695 376.196C248.69 368.981 239.903 360.425 234.957 349.297C234.895 349.157 234.772 349.054 234.624 349.016C234.476 348.978 234.319 349.01 234.197 349.102C229.013 353.052 222.878 355.206 217.971 354.826C215.525 354.637 213.41 353.822 211.849 352.317C210.375 350.897 209.353 348.822 209.045 345.962C216.968 345.329 223.997 341.571 229.468 337.867C231.861 336.247 233.967 334.629 235.721 333.282C236.016 333.055 236.302 332.836 236.577 332.626C237.535 331.894 238.361 331.275 239.054 330.814C239.708 330.377 240.199 330.112 240.542 330.007C240.591 330.171 240.618 330.468 240.609 330.936C240.599 331.422 240.554 332.022 240.498 332.721C240.493 332.787 240.488 332.853 240.483 332.92C240.431 333.564 240.374 334.279 240.332 335.036C240.151 338.351 240.258 342.643 242.598 345.798C242.693 345.925 242.842 346 243 346H255.317C275.798 363.271 288.05 372.401 310.718 387.913C310.778 387.954 310.846 387.981 310.918 387.993C315.471 388.752 319.61 388.707 323.982 388.497C324.982 388.449 325.994 388.393 327.025 388.335C330.449 388.144 334.092 387.941 338.269 387.997C339.207 389.078 339.915 389.961 340.397 390.733C340.904 391.544 341.137 392.193 341.152 392.783C341.168 393.362 340.975 393.952 340.494 394.652C340.034 395.324 339.326 396.071 338.333 396.976C330.193 395.998 324.204 395.751 319.736 396.443C315.202 397.146 312.192 398.823 310.096 401.706C310.073 401.737 310.054 401.77 310.039 401.805C307.357 408.16 306.543 412.885 307.771 416.586C309.009 420.312 312.263 422.848 317.307 424.961C317.368 424.987 317.434 425 317.5 425C328.002 425 333.866 425.4 338.32 426.58C342.756 427.756 345.818 429.711 350.726 432.919C350.772 432.948 350.821 432.97 350.874 432.984C353.836 433.757 356.162 433.428 357.737 432.297C359.319 431.161 360.037 429.292 359.937 427.226C359.739 423.131 356.357 418.144 349.792 415.577C348.71 414.36 348.219 413.335 348.12 412.506C348.022 411.686 348.302 410.998 348.902 410.418C349.518 409.822 350.478 409.338 351.713 409.005C352.912 408.681 354.338 408.508 355.885 408.5C396.026 428.098 411.327 435.47 451.802 452.959C451.864 452.986 451.932 453 452 453C454.94 453 456.907 453.52 458.424 454.422C459.948 455.328 461.071 456.647 462.28 458.352C462.656 458.882 463.038 459.446 463.441 460.042C465.398 462.933 467.846 466.548 472.461 470.485C459.964 467.54 451.848 467.814 447.245 469.944C444.791 471.079 443.31 472.756 442.744 474.764C442.182 476.757 442.546 478.994 443.606 481.221C445.724 485.669 450.692 490.239 457.302 493.193C463.754 496.077 471.816 497.443 480.425 495.638L479.488 503.914L479.36 504.455L479.356 504.471C474.534 524.737 471.954 535.579 472.5 554.994L472.499 555.002L472.495 555.087C472.491 555.161 472.485 555.273 472.477 555.42C472.461 555.714 472.436 556.151 472.402 556.721C472.335 557.86 472.232 559.53 472.087 561.654C471.798 565.9 471.345 571.959 470.69 579.205C469.379 593.681 467.259 612.889 464.018 631.851C452.67 656.452 448.954 672.994 443.056 699.247C442.716 700.76 442.369 702.305 442.013 703.886C442.013 703.887 442.013 703.889 442.012 703.89ZM240.509 329.926C240.509 329.926 240.51 329.926 240.51 329.927L240.509 329.926Z" fill="black" stroke="black" stroke-linecap="round" stroke-linejoin="round"/>
<path d="M493.5 498.486C493.496 498.347 493.434 498.216 493.329 498.124C489.304 494.602 485.429 491.931 482.43 489.971C481.675 489.478 480.986 489.036 480.363 488.636C479.736 488.235 479.177 487.877 478.686 487.552C478.202 487.233 477.803 486.958 477.494 486.724C477.217 486.514 477.036 486.353 476.932 486.237C476.315 484.756 476.036 483.653 476.053 482.838C476.07 482.054 476.357 481.548 476.927 481.185C477.542 480.794 478.524 480.547 479.971 480.441C481.402 480.337 483.22 480.374 485.46 480.499C485.691 480.524 486.049 480.633 486.546 480.857C487.041 481.08 487.64 481.399 488.334 481.811C489.721 482.634 491.462 483.808 493.475 485.268C497.5 488.185 502.586 492.221 508.062 496.809C519.003 505.976 531.474 517.324 540.112 526.318C540.883 527.436 540.924 528.423 540.547 529.225C540.153 530.066 539.253 530.808 537.954 531.28C535.373 532.219 531.431 532.004 527.813 529.608C518.565 520.798 512.269 514.942 508.242 511.589C506.235 509.917 504.755 508.837 503.739 508.332C503.249 508.088 502.767 507.926 502.352 507.991C502.121 508.027 501.909 508.135 501.752 508.325C501.699 508.39 501.656 508.458 501.621 508.53C501.4 508.584 501.189 508.702 500.994 508.886C500.695 509.166 500.429 509.597 500.169 510.186C499.648 511.369 499.076 513.37 498.378 516.622C496.978 523.139 495.042 534.823 492.009 555.4C489.255 565.922 487.91 575.379 486.676 585.157C486.509 586.482 486.344 587.813 486.177 589.153C485.116 597.71 484.007 606.647 482.012 616.891L465.021 683.855L459.368 699.817C460.908 692.988 462.068 687.257 462.983 678.196C463.024 678.136 463.061 678.074 463.093 678.014C463.16 677.89 463.227 677.743 463.294 677.578C463.429 677.248 463.576 676.819 463.733 676.305C464.049 675.275 464.42 673.873 464.83 672.177C465.652 668.785 466.644 664.193 467.7 659.009C469.812 648.644 472.187 635.895 473.99 625.598C479.594 600.756 481.415 586.671 484.495 561.573C487.249 545.496 488.785 535.28 491.476 513.226C491.994 512.66 492.377 511.899 492.664 511.011C492.975 510.05 493.184 508.907 493.322 507.63C493.597 505.076 493.593 501.922 493.5 498.486Z" fill="black" stroke="black" stroke-linejoin="round"/>
<path d="M699.5 604C675.5 581.5 664 568 649 564C612.5 558.5 585 548 560 536C573.606 550.342 595.5 562.5 623.5 569.5C631 593.5 640 602.5 649 602.5C651 597.5 638 576 639 571H649C660.231 584.315 666.09 590.245 686 605.5C697 611 702.792 610.564 699.5 604Z" fill="black" stroke="black" stroke-linecap="round" stroke-linejoin="round"/>
<path d="M713 586.5L699.5 582.5" stroke="black" stroke-opacity="0.44" stroke-width="5" stroke-linecap="round" stroke-linejoin="round"/>
<path d="M558.5 709C556 706.5 564 683.5 566.5 655C566.895 650.5 573.5 652 576.5 660.5L568 705.5C571.491 707.04 573.378 707.265 576.5 705.5C576.96 695.573 577.105 690.049 576.5 680.5C578.643 663.944 580.328 664.866 587 679.5C595 700.5 570.5 734.5 558.5 709Z" fill="black" fill-opacity="0.69"/>
<path d="M395 896.5C382.771 921.577 379.044 934.252 375 959.5C375 959.5 374 949 377 932C381 917.5 395 896.5 395 896.5Z" fill="black" fill-opacity="0.75"/>
<path d="M375 959.5L374.502 959.547C374.526 959.798 374.732 959.992 374.984 960C375.235 960.008 375.454 959.828 375.493 959.579L375 959.5ZM395 896.5L395.449 896.719C395.565 896.483 395.477 896.197 395.249 896.066C395.02 895.935 394.73 896.004 394.584 896.223L395 896.5ZM377 932L376.518 931.867C376.514 931.882 376.51 931.898 376.507 931.913L377 932ZM375.493 959.579C379.53 934.378 383.243 921.751 395.449 896.719L394.55 896.281C382.3 921.404 378.558 934.126 374.506 959.421L375.493 959.579ZM395 896.5C394.584 896.223 394.584 896.223 394.584 896.223C394.584 896.223 394.583 896.223 394.583 896.224C394.583 896.224 394.582 896.225 394.581 896.227C394.579 896.229 394.577 896.233 394.573 896.239C394.566 896.249 394.556 896.264 394.543 896.285C394.516 896.325 394.476 896.385 394.424 896.465C394.32 896.623 394.167 896.856 393.971 897.159C393.579 897.763 393.015 898.642 392.326 899.742C390.948 901.942 389.069 905.027 387.065 908.566C383.062 915.633 378.535 924.553 376.518 931.867L377.482 932.133C379.464 924.947 383.937 916.117 387.935 909.059C389.93 905.536 391.802 902.464 393.174 900.273C393.86 899.178 394.421 898.303 394.81 897.703C395.005 897.402 395.156 897.171 395.259 897.014C395.311 896.936 395.35 896.877 395.376 896.837C395.39 896.817 395.4 896.802 395.406 896.792C395.409 896.787 395.412 896.783 395.414 896.781C395.414 896.78 395.415 896.779 395.415 896.778C395.416 896.778 395.416 896.778 395.416 896.778C395.416 896.777 395.416 896.777 395 896.5ZM376.507 931.913C375.003 940.44 374.501 947.34 374.375 952.112C374.312 954.498 374.344 956.352 374.391 957.612C374.414 958.243 374.442 958.724 374.464 959.049C374.475 959.212 374.484 959.335 374.491 959.418C374.494 959.46 374.497 959.492 374.499 959.513C374.5 959.524 374.501 959.532 374.501 959.538C374.501 959.541 374.502 959.543 374.502 959.545C374.502 959.545 374.502 959.546 374.502 959.546C374.502 959.547 374.502 959.547 374.502 959.547C374.502 959.547 374.502 959.547 375 959.5C375.498 959.453 375.498 959.453 375.498 959.453C375.498 959.453 375.498 959.453 375.498 959.453C375.498 959.452 375.497 959.452 375.497 959.452C375.497 959.451 375.497 959.449 375.497 959.447C375.497 959.442 375.496 959.435 375.495 959.425C375.493 959.406 375.491 959.377 375.488 959.337C375.481 959.259 375.472 959.14 375.462 958.982C375.44 958.667 375.413 958.195 375.39 957.575C375.344 956.335 375.312 954.502 375.375 952.138C375.499 947.41 375.997 940.56 377.492 932.087L376.507 931.913Z" fill="black" fill-opacity="0.5"/>
<path d="M435.5 773C426.583 806.696 421.035 823.894 410.5 858.5C410.5 858.5 422.568 833.289 427.5 815.5C432.141 798.762 435.5 773 435.5 773Z" fill="black" fill-opacity="0.7" stroke="black" stroke-opacity="0.5" stroke-linecap="round" stroke-linejoin="round"/>
<path d="M226.491 908.247C226.351 906.042 224.451 904.368 222.246 904.508C220.041 904.648 218.367 906.549 218.507 908.753L226.491 908.247ZM207 952L203.672 949.781C203.547 949.969 203.438 950.167 203.346 950.373L207 952ZM238.415 940.322C238.869 938.16 237.484 936.04 235.322 935.585C233.16 935.131 231.04 936.516 230.585 938.678L238.415 940.322ZM218.507 908.753C219.292 921.119 212.557 936.454 203.672 949.781L210.328 954.219C219.444 940.546 227.449 923.341 226.491 908.247L218.507 908.753ZM203.346 950.373C196.659 965.388 193.95 976.49 194.366 983.745C194.573 987.34 195.599 990.795 198.205 992.958C201.022 995.297 204.516 995.212 207.488 994.136C210.408 993.078 213.355 990.928 216.156 988.111C218.997 985.253 221.875 981.517 224.621 977C230.116 967.962 235.207 955.591 238.415 940.322L230.585 938.678C227.543 953.159 222.759 964.663 217.785 972.844C215.297 976.936 212.793 980.146 210.482 982.471C208.13 984.838 206.155 986.11 204.763 986.614C204.089 986.858 203.682 986.876 203.498 986.859C203.357 986.847 203.334 986.819 203.315 986.803C203.206 986.713 202.506 985.957 202.353 983.287C202.05 978.01 204.092 968.362 210.654 953.627L203.346 950.373Z" fill="black" fill-opacity="0.69"/>
</g>
<defs>
<radialGradient id="paint0_radial" cx="0" cy="0" r="1" gradientUnits="userSpaceOnUse" gradientTransform="translate(242.5 232.5) rotate(11.3099) scale(5.09902 6.48564)">
<stop stop-color="white"/>
<stop offset="1" stop-color="white" stop-opacity="0"/>
</radialGradient>
<clipPath id="clip0">
<rect width="1060" height="1060" fill="white"/>
</clipPath>
</defs>
</svg>
