<svg width="1686" height="1188" viewBox="0 0 1686 1188" fill="none" xmlns="http://www.w3.org/2000/svg">
<g clip-path="url(#clip0)">
<path fill-rule="evenodd" clip-rule="evenodd" d="M110.531 261.761H1038.52C1076.05 262.508 1074.55 312.603 1038.52 313.175H136.245L670.741 714.237C680.354 721.553 695.103 726.13 710.163 726.062C725.225 726.13 739.977 721.553 749.587 714.237L1062.64 479.337C1093.26 457.654 1123.19 495.038 1093.26 520.63L780.401 755.366C759.845 770.688 734.83 777.424 710.16 777.476C685.457 777.408 660.463 770.672 639.919 755.366L93.3965 345.312V1064.75L381.804 708.338C390.73 697.299 406.905 695.607 417.937 704.534C428.991 713.482 430.682 729.663 421.758 740.7L130.506 1100.62C130.344 1100.82 130.16 1100.99 129.977 1101.16C129.83 1101.3 129.682 1101.43 129.545 1101.59H1290.79C1290.48 1101.26 1290.12 1100.99 1289.83 1100.62L998.573 740.7C989.644 729.663 991.341 713.461 1002.39 704.534C1013.41 695.604 1029.6 697.302 1038.52 708.338L1326.92 1064.74V705.028V639.341C1326.92 600.461 1378.33 594.48 1378.33 639.341V1084.44C1378.33 1122.15 1347.49 1153 1309.8 1153H110.531C72.8374 1153 42 1122.15 42 1084.44V330.316C42 292.61 72.8374 261.761 110.531 261.761Z" fill="white"/>
<path d="M1449.15 479.097C1361.62 538.443 1242.66 515.615 1183.31 428.084C1165.14 401.284 1154.86 371.634 1151.44 341.577L1086.76 329.163C1088.49 375.779 1102.39 422.433 1130.5 463.889C1209.63 580.596 1368.25 611.036 1484.96 531.907L1538.66 611.12L1572.67 433.892L1395.44 399.883L1449.15 479.097Z" fill="white" stroke="white" stroke-width="7" stroke-linecap="round" stroke-linejoin="round"/>
<path d="M1198.52 109.433L1144.81 30.2191L1110.8 207.446L1288.03 241.455L1234.32 162.241C1321.85 102.895 1440.82 125.723 1500.16 213.254C1518.33 240.054 1528.61 269.704 1532.03 299.761L1596.72 312.175C1594.98 265.56 1581.08 218.905 1552.97 177.449C1473.84 60.7425 1315.23 30.3047 1198.52 109.433Z" fill="white" stroke="white" stroke-width="7" stroke-linecap="round" stroke-linejoin="round"/>
</g>
<defs>
<clipPath id="clip0">
<rect width="1686" height="1188" fill="white"/>
</clipPath>
</defs>
</svg>
