<svg width="1762" height="1762" viewBox="0 0 1762 1762" fill="none" xmlns="http://www.w3.org/2000/svg">
<path d="M1587 820C1620.69 820 1648 847.311 1648 881C1648 914.689 1620.69 942 1587 942V820ZM618.867 924.134C595.045 900.312 595.045 861.688 618.867 837.866L1007.07 449.665C1030.89 425.843 1069.51 425.843 1093.34 449.665C1117.16 473.487 1117.16 512.11 1093.34 535.932L748.267 881L1093.34 1226.07C1117.16 1249.89 1117.16 1288.51 1093.34 1312.34C1069.51 1336.16 1030.89 1336.16 1007.07 1312.34L618.867 924.134ZM1587 942H662V820H1587V942Z" fill="#FF8C00"/>
<path d="M708 221.975C708 221.975 487.583 172.532 361.695 221.975C124.006 315.328 101.778 1425.77 361.695 1538.14C485.84 1591.82 708 1538.14 708 1538.14" stroke="#FF8C00" stroke-width="122" stroke-linecap="round" stroke-linejoin="round"/>
</svg>
