<svg width="1762" height="1762" viewBox="0 0 1762 1762" fill="none" xmlns="http://www.w3.org/2000/svg">
<path d="M662 820C628.311 820 601 847.311 601 881C601 914.689 628.311 942 662 942V820ZM1630.13 924.134C1653.96 900.312 1653.96 861.688 1630.13 837.866L1241.93 449.665C1218.11 425.843 1179.49 425.843 1155.66 449.665C1131.84 473.487 1131.84 512.11 1155.66 535.932L1500.73 881L1155.66 1226.07C1131.84 1249.89 1131.84 1288.51 1155.66 1312.34C1179.49 1336.16 1218.11 1336.16 1241.93 1312.34L1630.13 924.134ZM662 942H1587V820H662V942Z" fill="white"/>
<path d="M708 221.975C708 221.975 487.583 172.532 361.695 221.975C124.006 315.328 101.778 1425.77 361.695 1538.14C485.84 1591.82 708 1538.14 708 1538.14" stroke="white" stroke-width="122" stroke-linecap="round" stroke-linejoin="round"/>
</svg>
