<svg width="1066" height="1066" viewBox="0 0 1066 1066" fill="none" xmlns="http://www.w3.org/2000/svg">
<g clip-path="url(#clip0)">
<path d="M1011.33 177.666H54.6679C24.5992 177.666 0 202.265 0 232.332V833.666C0 863.731 24.5992 888.334 54.6679 888.334H1011.33C1041.4 888.334 1066 863.735 1066 833.666V232.332C1066 202.265 1041.4 177.666 1011.33 177.666ZM990.818 218.663L564.447 538.467C556.781 544.301 545.013 547.951 532.998 547.897C520.985 547.951 509.219 544.301 501.551 538.467L75.1801 218.663H990.818ZM763.064 559.569L995.398 846.57C995.631 846.858 995.917 847.076 996.165 847.337H69.8355C70.0812 847.064 70.3685 846.858 70.6017 846.57L302.936 559.569C310.054 550.768 308.705 537.866 299.887 530.731C291.087 523.612 278.184 524.961 271.064 533.764L40.9994 817.963V244.289L476.964 571.264C493.352 583.468 513.289 588.84 532.996 588.894C552.675 588.853 572.629 583.481 589.027 571.264L1024.99 244.289V817.959L794.934 533.764C787.814 524.963 774.899 523.61 766.11 530.731C757.295 537.849 755.942 550.768 763.064 559.569Z" fill="white"/>
</g>
<defs>
<clipPath id="clip0">
<rect width="1066" height="1066" fill="white"/>
</clipPath>
</defs>
</svg>
