<svg width="1138" height="1138" viewBox="0 0 1138 1138" fill="none" xmlns="http://www.w3.org/2000/svg">
<path d="M812.5 706.5C645.5 748.5 295 501.5 275 435L362 339L497.75 381L720.5 327L812.5 706.5Z" fill="white"/>
<rect width="1138" height="1138" fill="url(#paint0_radial)"/>
<path d="M639.5 412C544.257 384.3 484.488 358.944 360.5 328C371.053 373.954 385.66 398.188 425.5 439L562.5 461C581.5 439 602 432 639.5 412Z" fill="#2394C7" stroke="black"/>
<path d="M416.5 393.5L379 373.5C389.346 386.369 397.018 394.782 403.943 401.5C415.199 395.316 427 413 424 419C443 416.5 457.5 427 492 442.5C509.713 446.807 500 436 485.5 428C483.934 427.136 511 435.25 506.5 432C497.5 425.5 486.5 418 483 412.5C484.287 408.252 492.306 413.092 498.5 411.5L500 405L446 391.5C442 390.5 440 397 453 408C458.5 411.5 431.34 399.553 416.5 393.5Z" fill="#49CEE8"/>
<path d="M587.5 432.5L540.5 411L519.5 409.5C531.598 421.493 535.5 428.962 533 430.5C526.5 434.5 512.12 418.569 505.5 409.5C511.21 423.2 514 434.5 510 436C506 437.5 497.591 425.964 497 414C495.616 403.479 495.162 397.672 498.5 388.5L563 375L633.5 408.5L587.5 432.5Z" fill="#27898F"/>
<path d="M596 434C590 432.5 581 446 581 452.5C584.541 497.885 598 530.5 620 514.5C633 499.5 635.339 484.754 596 434Z" fill="white" stroke="black" stroke-width="5" stroke-linecap="round" stroke-linejoin="round"/>
<path d="M561 428C556.5 429.5 555.892 436.151 563 436C571.887 434.872 571 424.667 561 428Z" fill="white"/>
<path d="M403.5 387C406.794 389 420.5 376 417.5 372.5C408.5 372.5 393.5 359.472 391 359.5C387.732 359.537 387.09 361.213 387 363C386.481 377.231 389.5 378.5 403.5 387Z" fill="white"/>
<path d="M450 358C427.5 360 387.679 355.162 388.5 345L391 328L467 329.5L450 358Z" fill="#313A65"/>
<path d="M411.5 371C403.264 368.98 400.155 367.421 400.5 363C402.442 358.835 408.5 362 437 372C428.724 372.192 423.733 372.178 411.5 371Z" fill="#323A65"/>
<path d="M525.5 391L506 388L495.5 389L514.5 403C524 411 548.5 426 549.5 425C551.5 423 548.168 420.192 547 417C547.5 416 576 435 580.5 425C563 407.5 527.5 397.5 525.5 391Z" fill="#313A65"/>
<path d="M619 427.5C555.5 400.5 539.5 394.5 531.5 383L525.5 361C555.711 360.106 577 378.5 614.5 403L619 427.5Z" fill="#313A65"/>
<path d="M623.5 403L631 515.5C676.211 551.136 703.421 575.288 746.5 611.5C755.5 622.5 739 619 739 620.5C738.229 621.927 750 634 752 636.5C745.5 642.5 749.5 648 750 647.5C787 668 802.5 709.438 814 707C850.987 699.16 864.463 684.272 883.5 650.5C850.5 565 811.061 470.228 623.5 403Z" fill="#A1CED7"/>
<path d="M275 435C260.222 391.957 259.842 366.676 277 325L351.5 320.5L389 407C362.745 402.53 349.056 401.594 326 402C341 405 379.808 416.85 395.5 424.5L437 456.5C404.354 442.167 357 435 275 435Z" fill="#A1C9D2"/>
<path d="M275 435C260.222 391.957 259.842 366.676 277 325L351.5 320.5L389 407C362.745 402.53 349.056 401.594 326 402C341 405 379.808 416.85 395.5 424.5L437 456.5C404.354 442.167 357 435 275 435Z" fill="url(#paint1_radial)"/>
<path fill-rule="evenodd" clip-rule="evenodd" d="M216 186C211.562 226 227.1 249.864 275.5 276.5L276.5 266.5C320.504 270.017 330.5 265 322 245C293.5 239 294.517 240.11 283.5 226.5C490 233 677.5 251 801 372.5C822.6 375.358 836.62 376.672 851 371C856 388.5 870.851 374.006 885 354.5C888.537 369.051 884.799 377.368 866 392.5C835.105 396.226 829.272 397.273 828 399.5C851 427.5 870.5 445.5 942.5 445.5C932.89 457.988 922.222 460.366 898.5 460.5L936.5 502V516.5C946.572 534.198 983.6 536.178 1042.5 534C1029.63 543.679 1028.07 545.034 1047.5 548C1031.5 553.5 1039.81 556.386 1028 558C1006.53 558.518 994.217 558.573 971.5 558C985.579 585.675 999.664 599.218 1028 611.5C1102 626 1029.5 641.5 992.5 620.5C979.5 627 1047.5 648.5 1024 652.5C997.5 659.5 959.3 641.369 949.5 601.5C940.579 597.844 926.5 599 926.5 603C926.5 629 936.5 653 943.5 659.5C923 674 877.394 647 875.5 640.5C853.5 565 768 477 648.5 416V430L624.5 451.5C661.5 518.5 597.5 551 580.5 512.5C578.5 506 576 483.5 573 471.5C551.5 474.5 536.659 473.216 513 471.5L508 476.5C469.5 476.5 403.5 445.5 386.5 413.5C374.814 401.534 370.632 395.053 366.5 379C349.454 362.663 344.11 351.309 341.5 327C316.679 319.953 223.4 340.778 156.5 281.5C161.5 280 194.5 291 194.5 291C179.903 284.254 180 278 181 269.5C181.409 266.024 206.668 281.2 223.5 294C244.887 300.096 260.677 301.599 295 301C299.5 299.5 306 294 276.5 295.059C230.5 282 175 217.5 216 186ZM432 339.5C418.401 335.347 410.477 334.318 396 334L392.5 341.5C381.641 349.244 382.821 354.887 383 368.5C380.5 377.5 382.55 385.193 391 382C398 384.5 391.5 402 404.5 399.5C401 412 411.5 404.5 416 412C420.786 417.591 426.146 422.432 432 426.538C441.305 430.14 448.695 434.018 454.5 437.963C466.152 442.008 478.946 444 492.5 444C514.5 452.5 553 446 567.5 454C578.158 426.608 584.903 419.685 598 419C601.258 422.882 603.858 425.219 611.5 430C617.607 417.615 618.36 410.407 614 397C592.853 386.253 577.914 377.439 563 376.5C560.5 382 529.5 375 534.5 382C517.112 383.135 509.045 384.054 502.5 387C495.5 394.5 514 390.5 524.5 393.5C517 408.5 475.5 398.5 487.5 412C477.619 414.083 469 414 468 403C454.757 402.176 448.819 398.872 444 382C433.657 375.409 430.12 372.131 444 370C447.218 356.299 448.902 348.709 432 350C430.431 345.899 429.883 343.601 432 339.5ZM596 434C590 432.5 581 446 581 452.5C584.541 497.885 598 530.5 620 514.5C633 499.5 635.339 484.754 596 434Z" fill="black" stroke="black" stroke-width="5" stroke-linecap="round" stroke-linejoin="round"/>
<path d="M285.957 483.297C285.895 483.157 285.772 483.054 285.624 483.016C285.476 482.978 285.319 483.01 285.197 483.102C280.013 487.052 273.878 489.206 268.971 488.826C266.525 488.637 264.41 487.822 262.849 486.317C261.375 484.897 260.353 482.822 260.045 479.962C267.968 479.329 274.997 475.571 280.468 471.867C282.861 470.247 284.967 468.629 286.721 467.282C287.016 467.055 287.302 466.836 287.577 466.626C288.535 465.894 289.361 465.275 290.054 464.814C290.708 464.377 291.199 464.112 291.542 464.007C291.591 464.171 291.618 464.468 291.609 464.936C291.599 465.422 291.554 466.022 291.498 466.721C291.493 466.787 291.488 466.853 291.483 466.92C291.431 467.564 291.374 468.279 291.332 469.036C291.151 472.351 291.258 476.643 293.598 479.798C293.693 479.925 293.842 480 294 480H306.317C326.798 497.271 339.05 506.401 361.718 521.913C361.778 521.954 361.846 521.981 361.918 521.993C366.471 522.752 370.61 522.707 374.982 522.497C375.982 522.449 376.994 522.393 378.025 522.335C381.449 522.144 385.092 521.941 389.269 521.997C390.207 523.078 390.915 523.961 391.397 524.733C391.904 525.544 392.137 526.193 392.152 526.783C392.168 527.362 391.975 527.952 391.494 528.652C391.034 529.324 390.326 530.071 389.333 530.976C381.193 529.998 375.204 529.751 370.736 530.443C366.202 531.146 363.192 532.823 361.096 535.706C361.073 535.737 361.054 535.77 361.039 535.805C358.357 542.16 357.543 546.885 358.771 550.586C360.009 554.312 363.263 556.848 368.307 558.961C368.368 558.987 368.434 559 368.5 559C379.002 559 384.866 559.4 389.32 560.58C393.756 561.756 396.818 563.711 401.726 566.919C401.772 566.948 401.821 566.97 401.874 566.984C404.836 567.757 407.162 567.428 408.737 566.297C410.319 565.161 411.037 563.292 410.937 561.226C410.739 557.131 407.357 552.144 400.792 549.577C399.71 548.36 399.219 547.335 399.12 546.506C399.022 545.686 399.302 544.998 399.902 544.418C400.518 543.822 401.478 543.338 402.713 543.005C403.912 542.681 405.338 542.508 406.885 542.5C447.026 562.098 462.327 569.47 502.802 586.959C502.864 586.986 502.932 587 503 587C505.94 587 507.907 587.52 509.424 588.422C510.948 589.328 512.071 590.647 513.28 592.352C513.656 592.882 514.038 593.446 514.441 594.042C516.398 596.933 518.846 600.548 523.461 604.485C510.964 601.54 502.848 601.814 498.245 603.944C495.791 605.079 494.31 606.756 493.744 608.764C493.182 610.757 493.546 612.994 494.606 615.221C496.724 619.669 501.692 624.239 508.302 627.193C514.754 630.077 522.816 631.443 531.425 629.638L530.488 637.914L530.36 638.455L530.356 638.471C525.534 658.737 522.954 669.579 523.5 688.994L523.499 689.002L523.495 689.087C523.491 689.161 523.485 689.273 523.477 689.42C523.461 689.714 523.436 690.151 523.402 690.721C523.335 691.86 523.232 693.53 523.087 695.654C522.798 699.9 522.345 705.959 521.69 713.205C520.379 727.681 518.259 746.889 515.018 765.851C503.67 790.452 499.954 806.994 494.056 833.247C493.716 834.76 493.369 836.305 493.013 837.886C493.013 837.887 493.013 837.889 493.012 837.89L475.824 909.825C476.196 907.921 476.583 905.861 476.992 903.589C477.757 899.344 478.527 895.125 479.294 890.924C482.702 872.254 486.042 853.964 488.492 835.592C490.17 828.62 491.562 821.522 492.998 814.196C495.733 800.25 498.63 785.474 503.975 769.156C503.983 769.131 503.989 769.106 503.993 769.081C509.391 736.143 512.107 717.361 513.999 681.026C514 681.013 514 680.999 514 680.986C513.647 668.586 515.748 660.15 520.193 642.303C520.45 641.274 520.714 640.214 520.985 639.12C521.017 638.992 520.997 638.855 520.928 638.742C520.859 638.628 520.748 638.546 520.62 638.514L519.922 638.343C513.932 636.869 507.884 635.381 502.474 633.513C497.059 631.644 492.331 629.411 488.958 626.47C485.603 623.545 483.596 619.927 483.584 615.24C483.573 610.525 485.581 604.663 490.418 597.274C490.5 597.149 490.522 596.994 490.477 596.851C490.433 596.708 490.327 596.593 490.189 596.537C464.736 586.168 451.335 579.911 429.748 567.566C429.673 567.523 429.587 567.5 429.5 567.5C426.305 567.5 424.047 569.107 422.48 571.131C420.923 573.143 420.026 575.589 419.519 577.363C419.453 577.595 419.141 577.91 418.316 578.188C417.53 578.453 416.429 578.633 415.087 578.716C412.41 578.882 408.878 578.659 405.237 578.056C401.597 577.453 397.875 576.476 394.814 575.15C391.729 573.813 389.413 572.163 388.445 570.272C388.36 570.105 388.188 570 388 570C375.797 570 363.201 567.006 356.087 560.506C352.549 557.272 350.371 553.177 350.25 548.129C350.128 543.064 352.074 536.978 356.915 529.779C357.002 529.649 357.024 529.485 356.973 529.337C356.921 529.188 356.803 529.073 356.654 529.024C338.912 523.277 323.707 517.416 311.695 510.196C299.69 502.981 290.903 494.425 285.957 483.297ZM429.448 1039.22C433.497 1031.07 437.01 1023.75 440.198 1016.83C430.301 1042.04 420.366 1065.38 405.42 1092.87C406.791 1087.4 407.952 1083.31 411.452 1075.71C411.452 1075.71 411.453 1075.71 411.454 1075.71L429.448 1039.22ZM291.509 463.926C291.509 463.926 291.51 463.926 291.51 463.927L291.509 463.926Z" fill="black" stroke="black" stroke-linecap="round" stroke-linejoin="round"/>
<path d="M516.021 817.855L510.368 833.817C511.908 826.988 513.068 821.257 513.983 812.196C514.024 812.136 514.061 812.074 514.093 812.014C514.16 811.89 514.227 811.743 514.294 811.578C514.429 811.248 514.576 810.819 514.733 810.305C515.049 809.275 515.42 807.873 515.83 806.177C516.652 802.785 517.644 798.193 518.7 793.009C520.812 782.644 523.187 769.895 524.99 759.598C530.594 734.756 532.415 720.671 535.495 695.573C538.249 679.496 539.785 669.28 542.476 647.226C542.994 646.66 543.377 645.899 543.664 645.011C543.975 644.05 544.184 642.907 544.322 641.63C544.597 639.076 544.593 635.922 544.5 632.486C544.496 632.347 544.434 632.216 544.329 632.124C540.304 628.602 536.429 625.931 533.43 623.971C532.675 623.478 531.986 623.036 531.363 622.636C530.736 622.235 530.177 621.877 529.686 621.552C529.202 621.233 528.803 620.958 528.494 620.724C528.217 620.514 528.036 620.353 527.932 620.237C527.315 618.756 527.036 617.653 527.053 616.838C527.07 616.054 527.357 615.548 527.927 615.185C528.542 614.794 529.524 614.547 530.971 614.441C532.402 614.337 534.22 614.374 536.46 614.499C536.691 614.524 537.049 614.633 537.546 614.857C538.041 615.08 538.64 615.399 539.334 615.811C540.721 616.634 542.462 617.808 544.475 619.268C548.5 622.185 553.586 626.221 559.062 630.809C570.003 639.976 582.474 651.324 591.112 660.318C591.883 661.436 591.924 662.423 591.547 663.225C591.153 664.066 590.253 664.808 588.954 665.28C586.373 666.219 582.431 666.004 578.813 663.608C569.565 654.798 563.269 648.942 559.242 645.589C557.235 643.917 555.755 642.837 554.739 642.332C554.249 642.088 553.767 641.926 553.352 641.991C553.121 642.027 552.909 642.135 552.752 642.325C552.699 642.39 552.656 642.458 552.621 642.53C552.4 642.584 552.189 642.702 551.994 642.886C551.695 643.166 551.429 643.597 551.169 644.186C550.648 645.369 550.076 647.37 549.378 650.622C547.978 657.139 546.042 668.823 543.009 689.4C540.255 699.922 538.91 709.379 537.676 719.157C537.509 720.482 537.344 721.813 537.177 723.153C536.116 731.71 535.007 740.647 533.012 750.891L516.021 817.855Z" fill="black" stroke="black" stroke-linejoin="round"/>
<path d="M750.5 738C726.5 715.5 715 702 700 698C663.5 692.5 636 682 611 670C624.606 684.342 646.5 696.5 674.5 703.5C682 727.5 691 736.5 700 736.5C702 731.5 689 710 690 705H700C711.231 718.315 717.09 724.245 737 739.5C748 745 753.792 744.564 750.5 738Z" fill="black" stroke="black" stroke-linecap="round" stroke-linejoin="round"/>
<path d="M764 720.5L750.5 716.5" stroke="black" stroke-opacity="0.44" stroke-width="5" stroke-linecap="round" stroke-linejoin="round"/>
<path d="M609.5 843C607 840.5 615 817.5 617.5 789C617.895 784.5 624.5 786 627.5 794.5L619 839.5C622.491 841.04 624.378 841.265 627.5 839.5C627.96 829.573 628.105 824.049 627.5 814.5C629.643 797.944 631.328 798.866 638 813.5C646 834.5 621.5 868.5 609.5 843Z" fill="black" fill-opacity="0.69"/>
<path d="M446 1030.5C433.771 1055.58 430.044 1068.25 426 1093.5C426 1093.5 425 1083 428 1066C432 1051.5 446 1030.5 446 1030.5Z" fill="black" fill-opacity="0.75"/>
<path d="M426 1093.5L425.502 1093.55C425.526 1093.8 425.732 1093.99 425.984 1094C426.235 1094.01 426.454 1093.83 426.493 1093.58L426 1093.5ZM446 1030.5L446.449 1030.72C446.565 1030.48 446.477 1030.2 446.249 1030.07C446.02 1029.94 445.73 1030 445.584 1030.22L446 1030.5ZM428 1066L427.518 1065.87C427.514 1065.88 427.51 1065.9 427.507 1065.91L428 1066ZM426.493 1093.58C430.53 1068.38 434.243 1055.75 446.449 1030.72L445.55 1030.28C433.3 1055.4 429.558 1068.13 425.506 1093.42L426.493 1093.58ZM446 1030.5C445.584 1030.22 445.584 1030.22 445.584 1030.22C445.584 1030.22 445.583 1030.22 445.583 1030.22C445.583 1030.22 445.582 1030.23 445.581 1030.23C445.579 1030.23 445.577 1030.23 445.573 1030.24C445.566 1030.25 445.556 1030.26 445.543 1030.28C445.516 1030.33 445.476 1030.39 445.424 1030.46C445.32 1030.62 445.167 1030.86 444.971 1031.16C444.579 1031.76 444.015 1032.64 443.326 1033.74C441.948 1035.94 440.069 1039.03 438.065 1042.57C434.062 1049.63 429.535 1058.55 427.518 1065.87L428.482 1066.13C430.464 1058.95 434.937 1050.12 438.935 1043.06C440.93 1039.54 442.802 1036.46 444.174 1034.27C444.86 1033.18 445.421 1032.3 445.81 1031.7C446.005 1031.4 446.156 1031.17 446.259 1031.01C446.311 1030.94 446.35 1030.88 446.376 1030.84C446.39 1030.82 446.4 1030.8 446.406 1030.79C446.409 1030.79 446.412 1030.78 446.414 1030.78C446.414 1030.78 446.415 1030.78 446.415 1030.78C446.416 1030.78 446.416 1030.78 446.416 1030.78C446.416 1030.78 446.416 1030.78 446 1030.5ZM427.507 1065.91C426.003 1074.44 425.501 1081.34 425.375 1086.11C425.312 1088.5 425.344 1090.35 425.391 1091.61C425.414 1092.24 425.442 1092.72 425.464 1093.05C425.475 1093.21 425.484 1093.34 425.491 1093.42C425.494 1093.46 425.497 1093.49 425.499 1093.51C425.5 1093.52 425.501 1093.53 425.501 1093.54C425.501 1093.54 425.502 1093.54 425.502 1093.54C425.502 1093.55 425.502 1093.55 425.502 1093.55C425.502 1093.55 425.502 1093.55 425.502 1093.55C425.502 1093.55 425.502 1093.55 426 1093.5C426.498 1093.45 426.498 1093.45 426.498 1093.45C426.498 1093.45 426.498 1093.45 426.498 1093.45C426.498 1093.45 426.497 1093.45 426.497 1093.45C426.497 1093.45 426.497 1093.45 426.497 1093.45C426.497 1093.44 426.496 1093.43 426.495 1093.43C426.493 1093.41 426.491 1093.38 426.488 1093.34C426.481 1093.26 426.472 1093.14 426.462 1092.98C426.44 1092.67 426.413 1092.19 426.39 1091.58C426.344 1090.34 426.312 1088.5 426.375 1086.14C426.499 1081.41 426.997 1074.56 428.492 1066.09L427.507 1065.91Z" fill="black" fill-opacity="0.5"/>
<path d="M486.5 907C477.583 940.696 472.035 957.894 461.5 992.5C461.5 992.5 473.568 967.289 478.5 949.5C483.141 932.762 486.5 907 486.5 907Z" fill="black" fill-opacity="0.7" stroke="black" stroke-opacity="0.5" stroke-linecap="round" stroke-linejoin="round"/>
<path d="M277.491 1042.25C277.351 1040.04 275.451 1038.37 273.246 1038.51C271.041 1038.65 269.367 1040.55 269.507 1042.75L277.491 1042.25ZM258 1086L254.672 1083.78C254.547 1083.97 254.438 1084.17 254.346 1084.37L258 1086ZM289.415 1074.32C289.869 1072.16 288.484 1070.04 286.322 1069.59C284.16 1069.13 282.04 1070.52 281.585 1072.68L289.415 1074.32ZM269.507 1042.75C270.292 1055.12 263.557 1070.45 254.672 1083.78L261.328 1088.22C270.444 1074.55 278.449 1057.34 277.491 1042.25L269.507 1042.75ZM254.346 1084.37C247.659 1099.39 244.95 1110.49 245.366 1117.74C245.573 1121.34 246.599 1124.79 249.205 1126.96C252.022 1129.3 255.516 1129.21 258.488 1128.14C261.408 1127.08 264.355 1124.93 267.156 1122.11C269.997 1119.25 272.875 1115.52 275.621 1111C281.116 1101.96 286.207 1089.59 289.415 1074.32L281.585 1072.68C278.543 1087.16 273.759 1098.66 268.785 1106.84C266.297 1110.94 263.793 1114.15 261.482 1116.47C259.13 1118.84 257.155 1120.11 255.763 1120.61C255.089 1120.86 254.682 1120.88 254.498 1120.86C254.357 1120.85 254.334 1120.82 254.315 1120.8C254.206 1120.71 253.506 1119.96 253.353 1117.29C253.05 1112.01 255.092 1102.36 261.654 1087.63L254.346 1084.37Z" fill="black" fill-opacity="0.69"/>
<path d="M148 40L990 882" stroke="#A52929" stroke-width="73" stroke-linecap="round" stroke-linejoin="round"/>
<path d="M990 40L148 882" stroke="#A52929" stroke-width="73" stroke-linecap="round" stroke-linejoin="round"/>
<defs>
<radialGradient id="paint0_radial" cx="0" cy="0" r="1" gradientUnits="userSpaceOnUse" gradientTransform="translate(76.5 586) rotate(114.095) scale(306.178 722.183)">
<stop stop-color="#E4B3B3"/>
<stop offset="1" stop-color="#E4B3B3" stop-opacity="0"/>
</radialGradient>
<radialGradient id="paint1_radial" cx="0" cy="0" r="1" gradientUnits="userSpaceOnUse" gradientTransform="translate(293.5 366.5) rotate(11.3099) scale(5.09902 6.48564)">
<stop stop-color="white"/>
<stop offset="1" stop-color="white" stop-opacity="0"/>
</radialGradient>
</defs>
</svg>
