<svg width="370" height="364" viewBox="0 0 370 364" fill="none" xmlns="http://www.w3.org/2000/svg">
<path d="M320.83 137.434L319.071 136.807L312.201 120.408L312.946 118.723C333.758 71.522 332.323 70.114 328.871 66.692L301.11 39.61C299.975 38.484 297.982 37.692 296.264 37.692C294.702 37.692 289.971 37.692 248.97 56.262L247.326 57L230.41 50.188L229.731 48.504C210.45 0.761963 208.475 0.761963 203.677 0.761963H164.472C159.692 0.761963 157.515 0.761963 139.636 48.587L138.963 50.328L122.135 57.188L120.526 56.519C92.774 44.819 76.57 38.886 72.346 38.886C70.632 38.886 68.632 39.655 67.492 40.778L39.705 67.938C36.18 71.415 34.718 72.871 56.62 119.087L57.425 120.801L50.544 137.182L48.86 137.833C0 156.715 0 158.556 0 163.474V201.892C0 206.823 0 208.871 48.957 226.416L50.707 227.034L57.589 243.367L56.85 245.036C36.038 292.259 37.358 293.537 40.901 297.061L68.62 324.18C69.782 325.297 71.793 326.095 73.508 326.095C75.06 326.095 79.78 326.095 120.808 307.534L122.451 306.765L139.378 313.611L140.036 315.304C159.329 363.03 161.311 363.03 166.112 363.03H205.329C210.253 363.03 212.295 363.03 230.188 315.173L230.855 313.431L247.71 306.617L249.314 307.271C277.043 319.004 293.239 324.925 297.436 324.925C299.135 324.925 301.153 324.18 302.312 323.032L330.144 295.813C333.645 292.318 335.104 290.889 313.163 244.717L312.347 242.983L319.216 226.673L320.856 226.03C369.794 207.049 369.794 205.199 369.794 200.275V161.88C369.793 156.95 369.793 154.914 320.83 137.434ZM184.896 244.203C149.858 244.203 121.354 216.244 121.354 181.903C121.354 147.561 149.859 119.639 184.896 119.639C219.919 119.639 248.418 147.567 248.418 181.903C248.419 216.238 219.92 244.203 184.896 244.203Z" fill="white"/>
</svg>
