<svg width="1071" height="1071" viewBox="0 0 1071 1071" fill="none" xmlns="http://www.w3.org/2000/svg">
<path d="M218.237 711.929C323.872 838.203 451.034 937.624 596.172 1007.97C651.43 1034.16 725.331 1065.23 807.664 1070.56C812.768 1070.78 817.651 1071 822.755 1071C878.014 1071 922.398 1051.91 958.572 1012.63C958.794 1012.41 959.237 1011.97 959.459 1011.52C972.331 995.99 986.978 982.009 1002.29 967.14C1012.72 957.154 1023.37 946.723 1033.58 936.071C1080.85 886.804 1080.85 824.222 1033.14 776.508L899.762 643.133C877.126 619.609 850.051 607.181 821.645 607.181C793.239 607.181 765.943 619.609 742.641 642.911L663.192 722.359C655.869 718.143 648.323 714.37 641.222 710.819C632.345 706.381 624.134 702.164 616.81 697.504C544.464 651.566 478.774 591.646 415.97 514.639C384.235 474.471 362.931 440.739 348.062 406.341C368.923 387.477 388.452 367.726 407.315 348.419C413.973 341.539 420.853 334.66 427.732 327.78C451.7 303.812 464.571 276.072 464.571 247.888C464.571 219.704 451.922 191.963 427.732 167.996L361.599 101.863C353.832 94.0953 346.508 86.5499 338.963 78.7826C324.316 63.6919 309.003 48.1573 293.913 34.1761C271.055 11.7619 244.202 0 215.796 0C187.612 0 160.537 11.7619 136.791 34.3981L53.792 117.397C23.6105 147.579 6.52244 184.196 2.97167 226.583C-1.24486 279.623 8.51975 335.991 33.819 404.122C72.6555 509.535 131.243 607.403 218.237 711.929ZM57.1209 231.244C59.7839 201.728 71.102 177.094 92.4066 155.79L174.962 73.2346C187.833 60.8069 202.037 54.3711 215.796 54.3711C229.333 54.3711 243.092 60.8069 255.742 73.6784C270.611 87.4376 284.592 101.863 299.683 117.175C307.228 124.943 314.995 132.71 322.763 140.699L388.896 206.832C402.655 220.591 409.756 234.573 409.756 248.332C409.756 262.091 402.655 276.072 388.896 289.831C382.016 296.711 375.136 303.812 368.257 310.692C347.618 331.553 328.311 351.304 307.006 370.167C306.562 370.611 306.34 370.833 305.896 371.277C287.477 389.697 290.362 407.229 294.8 420.544C295.022 421.21 295.244 421.654 295.466 422.319C312.554 463.375 336.3 502.433 373.361 549.037C439.938 631.149 510.066 694.841 587.295 743.886C596.837 750.1 607.046 754.982 616.589 759.864C625.465 764.303 633.677 768.519 641 773.179C641.888 773.623 642.553 774.067 643.441 774.511C650.765 778.284 657.866 780.059 664.968 780.059C682.722 780.059 694.262 768.741 698.034 764.968L781.033 681.969C793.905 669.098 807.886 662.218 821.645 662.218C838.511 662.218 852.271 672.648 860.926 681.969L994.745 815.567C1021.38 842.197 1021.15 871.047 994.079 899.232C984.759 909.218 974.994 918.761 964.564 928.747C949.029 943.838 932.829 959.373 918.182 976.905C892.661 1004.42 862.257 1017.29 822.977 1017.29C819.204 1017.29 815.21 1017.07 811.437 1016.85C738.646 1012.19 670.96 983.784 620.139 959.595C482.103 892.796 360.933 798.035 260.402 677.753C177.625 578.109 121.922 485.345 85.0832 385.924C62.2251 324.895 53.5701 275.85 57.1209 231.244Z" fill="white"/>
</svg>
