<svg width="1800" height="1800" viewBox="0 0 1800 1800" fill="none" xmlns="http://www.w3.org/2000/svg">
<g clip-path="url(#clip0)">
<path d="M1587.91 461.306L677.568 663.517C648.955 669.872 630.741 698.457 637.09 727.04L764.071 1298.7C770.419 1327.28 799.023 1345.47 827.636 1339.12L1737.98 1136.9C1766.59 1130.55 1784.81 1101.96 1778.46 1073.38L1651.48 501.719C1645.12 473.136 1616.52 454.95 1587.91 461.306ZM1577.05 504.616L1238.85 898.761C1232.79 905.928 1222.36 911.885 1210.92 914.373C1199.5 916.964 1187.53 915.981 1179 912.056L705.744 698.155L1577.05 504.616ZM1432.31 876.839L1714 1100.57C1714.28 1100.79 1714.6 1100.94 1714.89 1101.14L833.412 1296.93C833.588 1296.62 833.818 1296.37 833.979 1296.04L994.458 974.097C999.374 964.226 995.365 952.246 985.468 947.326C975.591 942.419 963.598 946.429 958.681 956.303L799.769 1275.11L678.629 729.741L1162.53 948.43C1180.7 956.569 1200.81 957.461 1219.57 953.347C1238.29 949.148 1256.14 939.824 1269.17 924.743L1614.98 521.754L1736.12 1067.12L1457.19 845.572C1448.55 838.71 1435.98 840.154 1429.12 848.78C1422.23 857.411 1423.67 869.978 1432.31 876.839Z" fill="white" stroke="white" stroke-width="40" stroke-linecap="round" stroke-linejoin="round"/>
<path d="M122.936 1228.73L643.014 1187.5C643.014 1187.5 682.583 1183.78 685.747 1223.69C688.911 1263.6 649.455 1268.74 649.455 1268.74L129.378 1309.98C129.378 1309.98 90.4934 1313.89 87.2727 1273.27C84.052 1232.65 122.936 1228.73 122.936 1228.73Z" fill="white" stroke="white" stroke-width="20" stroke-linejoin="round"/>
<path d="M56.667 1012.3H619.592C619.592 1012.3 666.108 1013.02 666.108 1053.51C666.108 1094 619.592 1094.72 619.592 1094.72H56.6669C56.6669 1094.72 10.835 1094.72 10.835 1053.51C10.835 1012.3 56.667 1012.3 56.667 1012.3Z" fill="white" stroke="white" stroke-width="21" stroke-linejoin="round"/>
<path d="M62.6209 797.77L561.296 843.479C561.296 843.479 608.544 849.223 604.83 891.396C601.115 933.57 553.734 929.338 553.734 929.338L55.0588 883.629C55.0588 883.629 11.1748 877.665 14.9559 834.736C18.7369 791.806 62.6209 797.77 62.6209 797.77Z" fill="white" stroke="white" stroke-width="25" stroke-linecap="round" stroke-linejoin="round"/>
<path d="M626 1502C609.431 1502 596 1515.43 596 1532C596 1548.57 609.431 1562 626 1562V1502ZM1749.71 1553.21C1761.43 1541.5 1761.43 1522.5 1749.71 1510.79L1558.79 1319.87C1547.08 1308.15 1528.08 1308.15 1516.37 1319.87C1504.65 1331.58 1504.65 1350.58 1516.37 1362.29L1686.07 1532L1516.37 1701.71C1504.65 1713.42 1504.65 1732.42 1516.37 1744.13C1528.08 1755.85 1547.08 1755.85 1558.79 1744.13L1749.71 1553.21ZM626 1562H1728.5V1502H626V1562Z" fill="white"/>
</g>
<defs>
<clipPath id="clip0">
<rect width="1800" height="1800" fill="white"/>
</clipPath>
</defs>
</svg>
