<svg width="1018" height="1018" viewBox="0 0 1018 1018" fill="none" xmlns="http://www.w3.org/2000/svg">
<path fill-rule="evenodd" clip-rule="evenodd" d="M509 84.8333C274.739 84.8333 84.8333 274.739 84.8333 509C84.8333 743.259 274.739 933.167 509 933.167C532.427 933.167 551.417 952.157 551.417 975.583C551.417 999.01 532.427 1018 509 1018C227.887 1018 0 790.112 0 509C0 227.887 227.887 0 509 0C790.112 0 1018 227.887 1018 509V593.833C1018 687.536 942.036 763.5 848.333 763.5C784.78 763.5 729.389 728.557 700.32 676.834C653.675 729.961 585.257 763.5 509 763.5C368.443 763.5 254.5 649.556 254.5 509C254.5 368.443 368.443 254.5 509 254.5C574.182 254.5 633.641 279.005 678.667 319.304V296.917C678.667 273.491 697.657 254.5 721.083 254.5C744.51 254.5 763.5 273.491 763.5 296.917V593.833C763.5 640.687 801.48 678.667 848.333 678.667C895.187 678.667 933.167 640.687 933.167 593.833V509C933.167 274.739 743.259 84.8333 509 84.8333ZM678.667 509C678.667 415.296 602.703 339.333 509 339.333C415.296 339.333 339.333 415.296 339.333 509C339.333 602.703 415.296 678.667 509 678.667C602.703 678.667 678.667 602.703 678.667 509Z" fill="white"/>
</svg>
